<svg xmlns="http://www.w3.org/2000/svg" width="150" height="150" viewBox="0 0 4000 4000">
	<style>
		path {
			fill: black;
			stroke: black;
		}

		@media (prefers-color-scheme: dark) {
			path {
				fill: white;
				stroke: white
			}
		}
	</style>
	<path transform="translate(0, 1000)" stroke-width="10"
		d="M2866.5 100.5L2918.5 158L2964 215.5L3004.5 273.5L3041 331L3073 389L3101.5 446.5L3126.5 504L3148 561.5L3167 619.5L3182.5 677L3195.5 734.5L3206 792.5L3214 850L3219.5 907.5L3222 965.5L3222.5 1023L3220 1080.5L3215.5 1138L3208 1196L3198 1253.5C3196.5 1260.5 3195 1267.5 3192.5 1274C3190 1281 3187 1288 3183.5 1295C3180 1301.5 3176 1308.5 3171.5 1315.5C3167 1322 3162 1329 3156 1335.5C3150.5 1342 3145 1348.5 3138 1355C3131.5 1361.5 3124 1367.5 3117 1373.5C3109.5 1379.5 3101.5 1385.5 3093 1391.5C3085 1397 3076.5 1402.5 3067.5 1408C3058.5 1413 3049 1418.5 3040 1423.5C3030.5 1428 3021 1433 3011.5 1437.5C3001.5 1441.5 2992 1446 2981.5 1450C2971.5 1454 2961.5 1457.5 2951.5 1461.5C2941.5 1465 2931 1468 2920.5 1471.5C2910.5 1474.5 2900 1477.5 2890 1480C2879.5 1482.5 2869.5 1485 2858.5 1487.5C2848.5 1489.5 2838 1491.5 2827.5 1493.5C2817.5 1495.5 2807 1497.5 2796.5 1499C2786.5 1500.5 2776 1502 2766 1503C2756 1504 2745.5 1505.5 2735.5 1506C2725.5 1507 2715.5 1508 2705 1508.5C2695 1509 2684.5 1509 2675 1509.5C2665 1510 2655 1510 2645 1509.5C2635 1509.5 2625 1509.5 2615.5 1509C2605.5 1508.5 2596 1507.5 2586.5 1507C2576.5 1506 2567 1505 2558 1503.5C2548 1502.5 2538.5 1501 2529.5 1499C2520 1497.5 2510.5 1495.5 2501.5 1493C2492.5 1491 2483.5 1488.5 2474.5 1486C2465.5 1483 2457 1480 2448.5 1476.5C2440 1473.5 2431.5 1469.5 2423.5 1466C2415.5 1462 2408 1458 2400.5 1453.5C2393 1449 2385.5 1444.5 2379 1439.5C2371.5 1434.5 2365.5 1429 2359.5 1423.5C2353 1418 2347 1412 2341.5 1406C2336.5 1400 2331.5 1394 2327.5 1387C2322.5 1380.5 2318.5 1374 2315 1367C2311.5 1360 2309 1353 2306.5 1346C2304 1339 2301.5 1331.5 2300 1324.5C2298.5 1317 2297.5 1309.5 2297 1302C2296.5 1294.5 2296 1287 2296.5 1279.5L2299 1216L2300.5 1152.5L2302 1088.5L2302.5 1025.5L2302.5 961.5L2301.5 898L2300.5 834.5L2298.5 771L2296 707.5L2292.5 644L2288.5 580.5L2284 517L2278.5 453L2272.5 389.5L2265.5 326L2257.5 262.5L2248.5 199L2238.5 135L2227 72L2214.5 8L2133 4.5L2051.5 3L1970 2.5L1888.5 4L1807 7L1726 12L1644.5 18.5L1563 26.5L1481.5 36.5L1400.5 48L1319 62L1237.5 77.5L1155.5 95L1074.5 115L993 137.5L911.5 162.5L830 190L749 220.5L667.5 254.5L586 293L458.5 363.5L353 434.5L265 505L192.5 575.5L133 646.5L86 717L50 788L25 858.5L10 929.5L5 1000L10 1070.5L25 1141.5L50 1212L86 1283L133 1353.5L192.5 1424.5L265 1495L353 1565.5L458.5 1636.5L586 1707L613.5 1720.5L640.5 1733.5L668.5 1745.5L696 1757.5L723.5 1769.5L751 1780.5L778.5 1791L806.5 1801.5L834 1811.5L861 1821L889 1830.5L916.5 1839.5L944 1848L971.5 1856L999 1864.5L1026.5 1872L1054 1879.5L1081.5 1886.5L1109.5 1893.5L1137 1900.5L1112 1873.5L1089 1847L1067 1820L1046 1793.5L1026.5 1766.5L1007.5 1739.5L990 1713L973.5 1686L957.5 1659.5L942.5 1632.5L928.5 1606L915 1579.5L902.5 1552.5L890.5 1526L879.5 1499L869 1472L859 1445.5L850 1418.5L841.5 1392L833.5 1365L854 1366.5L874.5 1368L895 1369.5L916 1370.5L936.5 1372L957 1373.5L977.5 1374.5L998 1376L1019 1377L1039.5 1378L1060 1379.5L1080.5 1380.5L1101 1381.5L1122 1382.5L1142.5 1383.5L1163 1384.5L1183.5 1385.5L1204 1386.5L1225 1387.5L1245.5 1388.5C1250.5 1388.5 1256 1389 1260.5 1389C1266 1389.5 1271 1389.5 1276 1389.5C1281.5 1390 1286.5 1390 1291.5 1390C1296.5 1390 1302 1390 1306.5 1390C1312 1390.5 1317 1390 1322 1390C1327 1390.5 1332.5 1390.5 1337 1390.5C1342.5 1390 1347.5 1390 1352.5 1390C1357.5 1390 1362.5 1390 1367.5 1390C1373 1389.5 1377.5 1389.5 1383 1389.5C1388 1389 1392.5 1389 1398 1389C1402.5 1388.5 1408 1388.5 1413 1388.5C1418 1388 1423 1387.5 1428 1387.5C1433 1387 1438.5 1386.5 1443 1386.5C1448.5 1386 1453 1385.5 1458 1385.5C1463 1385 1468 1384.5 1473 1384C1478 1383.5 1483 1383 1488 1383C1493 1382 1498 1382 1503 1381C1508 1380.5 1513 1380 1518 1379.5C1522.5 1379 1528 1378.5 1532.5 1377.5C1538 1377 1542.5 1376.5 1547.5 1375.5C1551.5 1395 1557.5 1414.5 1563.5 1433.5C1570 1453 1578 1472 1586.5 1490.5C1595.5 1509.5 1605 1528.5 1616 1546.5C1627 1565.5 1639 1583.5 1652.5 1601.5C1665.5 1619.5 1679.5 1637 1694.5 1654C1709 1671 1725 1687.5 1741.5 1703.5C1758 1719.5 1775 1735 1793 1750C1810 1764.5 1828 1778.5 1847 1792C1865.5 1805.5 1884 1818 1903.5 1830C1922 1842 1941.5 1853 1961 1863.5C1979.5 1873.5 1999 1883 2018.5 1892C2038 1900.5 2057 1908.5 2076.5 1916C2095.5 1923 2115 1929.5 2134.5 1935.5C2153 1941.5 2172.5 1946.5 2192 1950.5C2210.5 1955 2229.5 1958.5 2249 1961.5C2267.5 1964.5 2287 1966.5 2306 1968.5C2325 1970 2344 1971 2363.5 1971.5C2382.5 1972 2401.5 1972 2421.5 1971.5C2440.5 1970.5 2460 1969.5 2479.5 1967.5C2499 1966 2518.5 1963.5 2538.5 1961L2582.5 1954.5L2626.5 1947.5L2670 1940L2714 1932L2758 1923.5L2801.5 1914.5L2845.5 1904.5L2889 1894L2933 1883L2976.5 1871L3020.5 1858.5L3064 1845.5L3108 1831.5L3151.5 1816.5L3195.5 1801L3239 1784L3283 1766.5L3326.5 1748L3370.5 1728L3414 1707L3472 1676.5L3525.5 1646L3574.5 1615.5L3620 1585L3662 1554.5L3700.5 1524L3736.5 1493.5L3769.5 1463L3799.5 1432.5L3827.5 1402L3853 1371.5L3876 1341L3897 1310.5L3915.5 1280L3932 1249.5L3946.5 1219L3959.5 1188.5L3970 1158.5L3978.5 1128L3985.5 1097L3992 1057L3994.5 1017L3994.5 976.5L3991 936.5L3984.5 896L3974.5 856L3961 815.5L3944.5 775.5L3924 735L3900.5 695L3873 655L3841.5 614.5L3806 574.5L3766.5 534.5L3722.5 494L3673 454L3618 413.5L3557 373.5L3489.5 333L3414 293L3387 279.5L3359.5 267L3332 254.5L3304.5 242.5L3277.5 231L3250 220L3222.5 209.5L3195 199L3168 189L3140.5 179.5L3113 170.5L3085.5 161.5L3058.5 153L3031 144.5L3003.5 136.5L2976 128.5L2949 121.5L2921.5 114L2894 107L2866.5 100.5M1056 987L1042 987L1028.5 987L1015 987L1001 987L987.5 987L974 987L960 987L946.5 987L933 987.5L919 987.5L905.5 987.5L892 987.5L878 987.5L864.5 987.5L850.5 987.5L837 987.5L823.5 987.5L809.5 987.5L796 987.5L782.5 987.5L783 963L784 938L785.5 913.5L787 888.5L789.5 864L792 839L795.5 814.5L799 789.5L803.5 765L808 740L813 715.5L819 690.5L825 666L831.5 641L839 616.5L846.5 591.5L855 566.5L863.5 542L873 517.5L883 492.5L895 491L907.5 490L920.5 488.5L933 487.5L945.5 486.5L958 485L970.5 484L983.5 482.5L995.5 481.5L1008 480.5L1021 479.5L1033.5 478L1045.5 477L1058.5 476L1071 475L1083.5 474L1096 473L1108.5 472L1121 471L1134 470C1144 469 1154 468.5 1164 468C1174 468 1184 467.5 1194 467.5C1203.5 467.5 1213.5 468 1223.5 468.5C1233 468.5 1243 469.5 1252 470.5C1262 471.5 1271 472.5 1280.5 474C1290 475.5 1299 477 1308 479C1317 481 1326 483.5 1334 486C1343 488.5 1351.5 491.5 1360 494.5C1368 498 1376 501.5 1384 505C1391.5 509 1399 513 1406 517.5C1413 522 1420 527 1426 532C1433 537 1439 542 1445 548C1450 553.5 1455.5 559.5 1460 565.5C1465 571.5 1470 578 1474 584.5C1478 591 1481.5 597.5 1485 604.5C1488 611.5 1490.5 618.5 1493 625.5C1495 632.5 1497.5 640 1498.5 647.5C1500 654.5 1501.5 662 1502 669.5C1502.5 677 1503.5 684.5 1503 692C1503 699.5 1503 707 1502.5 714.5C1501.5 722.5 1500.5 730 1499.5 738C1498.5 745.5 1497 753 1495 760.5C1493 768.5 1491 776 1488.5 783C1486 791 1483 798.5 1479 805.5C1476 813 1472 820.5 1467.5 827.5C1463.5 834.5 1458.5 842 1453.5 848.5C1448 855.5 1442.5 862 1436 868.5C1430.5 875 1423.5 881.5 1416.5 887C1409.5 893.5 1402 899 1394 905C1386.5 910 1378 915.5 1369.5 920.5C1361 925 1352 930 1342.5 934.5C1333 938.5 1324 942.5 1314 946.5C1304.5 950.5 1294.5 954 1284 957C1274.5 960 1264 963 1253 965.5C1242.5 968 1232 970.5 1221 972.5C1210.5 974.5 1199.5 976.5 1188.5 978C1178 979.5 1167 981 1156 982C1145 983.5 1134 984 1122.5 985C1111.5 985.5 1100.5 986.5 1089.5 986.5C1078.5 987 1067 987 1056 987" />
</svg>